# xmcd
#
# Track frame offsets: 
#        150
#        10754
#        22051
#        33478
#        41066
#        52978
#        60321
#        71023
#        88317
#        99291
#        108557
#        123790
#        133340
#        146189
#
# Disc length: 2039 seconds
#
# Revision: 0
# Processed by: cddbd v1.5.2PL0 Copyright (c) Steve Scherf et al.
# Submitted via: ExactAudioCopy v0.99pb5
#
DISCID=c507f50e
DTITLE=Tramp Attack - Call In Sick
DYEAR=2006
DGENRE=Alternative
TTITLE0=Call in Sick
TTITLE1=City
TTITLE2=Write a Letter
TTITLE3=Half the Story
TTITLE4=Mr Sun
TTITLE5=Lost Cat Letter
TTITLE6=Late Night Shopping
TTITLE7=Learn to Swim
TTITLE8=Musical Differences
TTITLE9=Smithdown Road
TTITLE10=Fake Suicide
TTITLE11=Get Well Soon
TTITLE12=Short Back and Sides
TTITLE13=Put Me to Bed
EXTD=
EXTT0=
EXTT1=
EXTT2=
EXTT3=
EXTT4=
EXTT5=
EXTT6=
EXTT7=
EXTT8=
EXTT9=
EXTT10=
EXTT11=
EXTT12=
EXTT13=
PLAYORDER=
